<svg width="158" height="318" viewBox="0 0 158 318" fill="none" xmlns="http://www.w3.org/2000/svg">
<path d="M43.6596 175.57V67.57L53.9396 55.57V171.35C60.1926 167.743 65.385 162.553 68.9944 156.302C72.6037 150.05 74.5025 142.959 74.4996 135.74V0L23.0996 60V176.9H33.3796C36.8487 176.893 40.303 176.446 43.6596 175.57Z" fill="#F5E653"/>
<path d="M136.19 187.15V98.5298L84.78 38.5298V135.72C84.7668 149.349 79.3475 162.416 69.7113 172.054C60.0751 181.692 47.009 187.114 33.38 187.13H0V200H105.35V94.1398L115.63 106.14V200H158V187.15H136.19Z" fill="#3B3D3C"/>
<path d="M42.9648 270.832C42.9648 272.449 42.5312 273.961 41.6641 275.367C40.8203 276.75 39.707 278.027 38.3242 279.199C36.9414 280.371 35.3711 281.402 33.6133 282.293C31.8789 283.184 30.1094 283.934 28.3047 284.543C26.5 285.152 24.7539 285.598 23.0664 285.879C21.3789 286.16 19.9023 286.254 18.6367 286.16C17.5352 286.113 16.375 285.938 15.1562 285.633C13.9609 285.352 12.8945 285 11.957 284.578C11.043 284.156 10.3516 283.699 9.88281 283.207C9.4375 282.715 9.42578 282.234 9.84766 281.766C10.2695 281.32 10.7266 280.875 11.2188 280.43C11.7109 279.984 12.2969 279.527 12.9766 279.059C13.6562 278.566 14.4648 278.051 15.4023 277.512C16.3398 276.973 17.4648 276.375 18.7773 275.719C18.3555 276.375 18.25 276.949 18.4609 277.441C18.6719 277.934 19.0586 278.379 19.6211 278.777C20.207 279.152 20.9102 279.469 21.7305 279.727C22.5742 279.984 23.3945 280.195 24.1914 280.359C25.0117 280.523 25.75 280.641 26.4062 280.711C27.0859 280.781 27.5664 280.816 27.8477 280.816C28.6914 280.816 29.5234 280.781 30.3438 280.711C31.1875 280.617 31.9375 280.43 32.5938 280.148C33.25 279.867 33.7773 279.457 34.1758 278.918C34.5977 278.355 34.8086 277.594 34.8086 276.633C34.8086 275.461 34.4805 274.465 33.8242 273.645C33.1914 272.824 32.3477 272.145 31.293 271.605C30.2617 271.043 29.1016 270.598 27.8125 270.27C26.5234 269.941 25.2344 269.672 23.9453 269.461C22.6797 269.227 21.4727 269.039 20.3242 268.898C19.1992 268.734 18.2734 268.559 17.5469 268.371C16.375 268.066 15.3906 267.668 14.5938 267.176C13.8203 266.66 13.1875 266.098 12.6953 265.488C12.2266 264.855 11.8867 264.188 11.6758 263.484C11.4648 262.781 11.3594 262.078 11.3594 261.375C11.3594 259.805 11.7812 258.352 12.625 257.016C13.4688 255.68 14.5703 254.473 15.9297 253.395C17.2891 252.316 18.8242 251.367 20.5352 250.547C22.2695 249.727 24.0156 249.035 25.7734 248.473C27.5547 247.91 29.2773 247.488 30.9414 247.207C32.6055 246.926 34.0469 246.785 35.2656 246.785C36.6719 246.785 37.9141 246.867 38.9922 247.031C40.0938 247.172 40.9844 247.348 41.6641 247.559C42.3203 247.77 42.7305 248.039 42.8945 248.367C43.082 248.695 43.082 249.07 42.8945 249.492C42.7305 249.914 42.4023 250.371 41.9102 250.863C41.418 251.355 40.832 251.859 40.1523 252.375C39.6133 252.797 39.0391 253.195 38.4297 253.57C37.8906 253.898 37.293 254.238 36.6367 254.59C35.9805 254.918 35.3008 255.211 34.5977 255.469C34.9492 255.023 35.0898 254.625 35.0195 254.273C34.9727 253.922 34.7617 253.605 34.3867 253.324C34.0117 253.043 33.5078 252.809 32.875 252.621C32.2422 252.41 31.5391 252.246 30.7656 252.129C29.9922 251.988 29.1719 251.895 28.3047 251.848C27.4609 251.777 26.6289 251.742 25.8086 251.742C25.0117 251.742 24.2148 251.777 23.418 251.848C22.6211 251.895 21.9062 252.047 21.2734 252.305C20.6406 252.539 20.125 252.914 19.7266 253.43C19.3281 253.945 19.1289 254.648 19.1289 255.539C19.1289 256.266 19.293 257.027 19.6211 257.824C19.9492 258.598 20.4297 259.336 21.0625 260.039C21.7188 260.719 22.5273 261.328 23.4883 261.867C24.4492 262.406 25.5625 262.793 26.8281 263.027C27.8125 263.215 28.9023 263.355 30.0977 263.449C31.293 263.543 32.4883 263.66 33.6836 263.801C34.8789 263.941 36.0273 264.141 37.1289 264.398C38.2539 264.656 39.25 265.043 40.1172 265.559C40.9844 266.074 41.6758 266.754 42.1914 267.598C42.707 268.441 42.9648 269.52 42.9648 270.832ZM64.1992 219.328C64.1992 220.008 64.2109 220.664 64.2344 221.297C64.2578 221.906 64.2695 222.504 64.2695 223.09C64.2695 224.473 64.1523 225.656 63.918 226.641C63.6836 227.625 63.1328 228.41 62.2656 228.996C61.75 229.371 61.1055 229.805 60.332 230.297C59.043 231.141 56.9688 232.43 54.1094 234.164C54.3906 233.414 54.5898 232.512 54.707 231.457C54.8477 230.379 54.9414 229.359 54.9883 228.398C55.0352 227.273 55.0352 226.102 54.9883 224.883C56.4648 224.109 57.7656 223.395 58.8906 222.738C60.0156 222.059 60.9766 221.461 61.7734 220.945C62.7109 220.359 63.5195 219.82 64.1992 219.328ZM76.5742 279.234C73.9023 280.992 71.6289 282.375 69.7539 283.383C67.9023 284.391 66.3086 285.141 64.9727 285.633C63.6367 286.125 62.5117 286.406 61.5977 286.477C60.6836 286.547 59.8516 286.512 59.1016 286.371C58.4219 286.254 57.7539 286.078 57.0977 285.844C56.4414 285.609 55.8438 285.188 55.3047 284.578C54.7891 283.945 54.3672 283.043 54.0391 281.871C53.7109 280.699 53.5469 279.105 53.5469 277.09C53.5469 275.402 53.5938 273.738 53.6875 272.098C53.7812 270.434 53.875 268.793 53.9688 267.176C54.0859 265.535 54.168 263.918 54.2148 262.324C54.2852 260.707 54.2969 259.102 54.25 257.508C54.2031 255.961 53.9219 254.836 53.4062 254.133C52.8906 253.406 52.1172 253.043 51.0859 253.043C50.6875 253.043 50.2539 253.09 49.7852 253.184C49.3164 253.277 48.8125 253.418 48.2734 253.605C49.1172 253.02 49.9844 252.434 50.875 251.848C51.7656 251.238 52.668 250.699 53.582 250.23C54.4961 249.762 55.4102 249.387 56.3242 249.105C57.2617 248.801 58.1875 248.648 59.1016 248.648C60.0859 248.648 60.9414 248.871 61.668 249.316C62.418 249.762 62.8984 250.5 63.1094 251.531C63.1797 251.93 63.2266 252.516 63.25 253.289C63.2969 254.062 63.3203 254.965 63.3203 255.996C63.3203 257.52 63.2852 259.207 63.2148 261.059C63.168 262.91 63.1094 264.738 63.0391 266.543C62.9688 268.324 62.8984 269.977 62.8281 271.5C62.7578 273 62.7109 274.16 62.6875 274.98C62.6641 275.754 62.8047 276.527 63.1094 277.301C63.4141 278.074 63.8594 278.777 64.4453 279.41C65.0547 280.02 65.793 280.523 66.6602 280.922C67.5508 281.297 68.5586 281.484 69.6836 281.484C70.668 281.484 71.7344 281.309 72.8828 280.957C74.0312 280.605 75.2617 280.031 76.5742 279.234ZM110.148 276.949C108.32 278.426 106.516 279.75 104.734 280.922C102.953 282.094 101.219 283.078 99.5312 283.875C97.8672 284.672 96.2617 285.258 94.7148 285.633C93.1914 286.031 91.7617 286.184 90.4258 286.09C89.0664 285.996 87.8125 285.668 86.6641 285.105C85.5391 284.543 84.5664 283.699 83.7461 282.574C82.9258 281.449 82.293 280.008 81.8477 278.25C81.4023 276.492 81.2148 274.371 81.2852 271.887C81.3086 270.551 81.3555 268.969 81.4258 267.141C81.4727 265.57 81.5195 263.625 81.5664 261.305C81.6133 258.984 81.6602 256.277 81.707 253.184C81.2148 253.23 80.6055 253.289 79.8789 253.359C79.1758 253.43 78.4023 253.559 77.5586 253.746C76.7383 253.91 75.8828 254.145 74.9922 254.449C74.1016 254.73 73.2227 255.094 72.3555 255.539C73.0586 255.094 73.7617 254.637 74.4648 254.168C75.1914 253.699 75.8477 253.266 76.4336 252.867C77.1133 252.422 77.7695 251.977 78.4023 251.531C79.0352 251.203 79.5977 250.605 80.0898 249.738C80.5117 248.988 80.8984 247.922 81.25 246.539C81.6016 245.156 81.7773 243.293 81.7773 240.949C83.418 240.129 84.8008 239.379 85.9258 238.699C87.0508 238.02 87.9648 237.445 88.668 236.977C89.4883 236.414 90.1445 235.934 90.6367 235.535L90.4961 247.348C91.1055 247.371 91.7031 247.395 92.2891 247.418C92.875 247.418 93.3906 247.418 93.8359 247.418H95.3125C97.3281 247.465 99.2383 247.441 101.043 247.348C101.816 247.324 102.602 247.277 103.398 247.207C104.219 247.137 105.004 247.055 105.754 246.961C106.504 246.844 107.195 246.703 107.828 246.539C108.484 246.375 109.035 246.188 109.48 245.977C108.215 247.242 106.82 248.309 105.297 249.176C103.797 250.043 102.227 250.758 100.586 251.32C98.9453 251.859 97.2578 252.27 95.5234 252.551C93.8125 252.832 92.1133 253.02 90.4258 253.113C90.3789 256.465 90.3438 259.758 90.3203 262.992C90.2969 266.227 90.2852 269.414 90.2852 272.555C90.3086 273.586 90.5664 274.559 91.0586 275.473C91.5508 276.387 92.2305 277.184 93.0977 277.863C93.9883 278.543 95.0312 279.094 96.2266 279.516C97.4219 279.914 98.7461 280.113 100.199 280.113C101.676 280.113 103.258 279.867 104.945 279.375C106.656 278.883 108.391 278.074 110.148 276.949ZM157.398 251.461C154.703 252.773 152.195 253.945 149.875 254.977C147.578 255.984 145.551 256.84 143.793 257.543C141.754 258.363 139.879 259.09 138.168 259.723C137.113 260.168 135.941 260.625 134.652 261.094C133.387 261.539 132.062 261.984 130.68 262.43C129.297 262.852 127.879 263.285 126.426 263.73C124.996 264.152 123.578 264.574 122.172 264.996V265.699C122.172 268.113 122.547 270.281 123.297 272.203C124.07 274.125 125.137 275.766 126.496 277.125C127.855 278.461 129.484 279.492 131.383 280.219C133.281 280.922 135.379 281.273 137.676 281.273C138.871 281.273 140.055 281.18 141.227 280.992C142.422 280.805 143.547 280.559 144.602 280.254C145.68 279.926 146.688 279.539 147.625 279.094C148.562 278.648 149.395 278.168 150.121 277.652C148.34 279.246 146.5 280.582 144.602 281.66C142.727 282.738 140.84 283.617 138.941 284.297C137.066 284.953 135.203 285.434 133.352 285.738C131.523 286.043 129.766 286.207 128.078 286.23C126.367 286.277 124.68 286.008 123.016 285.422C121.375 284.859 119.875 283.992 118.516 282.82C117.156 281.648 116.008 280.195 115.07 278.461C114.133 276.703 113.523 274.664 113.242 272.344C113.125 271.523 113.066 270.738 113.066 269.988C113.09 269.215 113.172 268.453 113.312 267.703C112.492 268.008 111.742 268.289 111.062 268.547C110.406 268.805 109.867 269.062 109.445 269.32C110.125 268.852 110.805 268.418 111.484 268.02C112.164 267.598 112.832 267.211 113.488 266.859C113.887 265.031 114.566 263.285 115.527 261.621C116.512 259.957 117.684 258.41 119.043 256.98C120.426 255.551 121.961 254.262 123.648 253.113C125.336 251.941 127.082 250.945 128.887 250.125C130.715 249.305 132.566 248.672 134.441 248.227C136.316 247.781 138.133 247.559 139.891 247.559C141.062 247.559 142.047 247.734 142.844 248.086C143.664 248.438 144.215 249.059 144.496 249.949C144.637 250.887 144.297 251.895 143.477 252.973C143.125 253.441 142.645 253.945 142.035 254.484C141.449 255 140.676 255.551 139.715 256.137C138.777 256.723 137.641 257.332 136.305 257.965C134.992 258.598 133.434 259.23 131.629 259.863L157.398 251.461ZM129.52 260.004C130.527 259.559 131.43 259.078 132.227 258.562C133.047 258.047 133.68 257.508 134.125 256.945C134.594 256.383 134.84 255.797 134.863 255.188C134.887 254.578 134.641 253.934 134.125 253.254C133.773 252.738 133.281 252.387 132.648 252.199C132.039 251.988 131.406 251.883 130.75 251.883C130.141 251.883 129.555 251.953 128.992 252.094C128.43 252.211 127.938 252.375 127.516 252.586C127.234 252.75 126.848 253.113 126.355 253.676C125.863 254.215 125.359 254.93 124.844 255.82C124.328 256.688 123.836 257.707 123.367 258.879C122.922 260.027 122.594 261.293 122.383 262.676C123.859 262.137 125.195 261.656 126.391 261.234C127.586 260.812 128.629 260.402 129.52 260.004Z" fill="#0A0A0A"/>
</svg>
