<svg width="149" height="68" viewBox="0 0 149 68" fill="none" xmlns="http://www.w3.org/2000/svg">
<path d="M33.9648 51.832C33.9648 53.4492 33.5312 54.9609 32.6641 56.3672C31.8203 57.75 30.707 59.0273 29.3242 60.1992C27.9414 61.3711 26.3711 62.4023 24.6133 63.293C22.8789 64.1836 21.1094 64.9336 19.3047 65.543C17.5 66.1523 15.7539 66.5977 14.0664 66.8789C12.3789 67.1602 10.9023 67.2539 9.63672 67.1602C8.53516 67.1133 7.375 66.9375 6.15625 66.6328C4.96094 66.3516 3.89453 66 2.95703 65.5781C2.04297 65.1562 1.35156 64.6992 0.882812 64.207C0.4375 63.7148 0.425781 63.2344 0.847656 62.7656C1.26953 62.3203 1.72656 61.875 2.21875 61.4297C2.71094 60.9844 3.29688 60.5273 3.97656 60.0586C4.65625 59.5664 5.46484 59.0508 6.40234 58.5117C7.33984 57.9727 8.46484 57.375 9.77734 56.7188C9.35547 57.375 9.25 57.9492 9.46094 58.4414C9.67188 58.9336 10.0586 59.3789 10.6211 59.7773C11.207 60.1523 11.9102 60.4688 12.7305 60.7266C13.5742 60.9844 14.3945 61.1953 15.1914 61.3594C16.0117 61.5234 16.75 61.6406 17.4062 61.7109C18.0859 61.7812 18.5664 61.8164 18.8477 61.8164C19.6914 61.8164 20.5234 61.7812 21.3438 61.7109C22.1875 61.6172 22.9375 61.4297 23.5938 61.1484C24.25 60.8672 24.7773 60.457 25.1758 59.918C25.5977 59.3555 25.8086 58.5938 25.8086 57.6328C25.8086 56.4609 25.4805 55.4648 24.8242 54.6445C24.1914 53.8242 23.3477 53.1445 22.293 52.6055C21.2617 52.043 20.1016 51.5977 18.8125 51.2695C17.5234 50.9414 16.2344 50.6719 14.9453 50.4609C13.6797 50.2266 12.4727 50.0391 11.3242 49.8984C10.1992 49.7344 9.27344 49.5586 8.54688 49.3711C7.375 49.0664 6.39062 48.668 5.59375 48.1758C4.82031 47.6602 4.1875 47.0977 3.69531 46.4883C3.22656 45.8555 2.88672 45.1875 2.67578 44.4844C2.46484 43.7812 2.35938 43.0781 2.35938 42.375C2.35938 40.8047 2.78125 39.3516 3.625 38.0156C4.46875 36.6797 5.57031 35.4727 6.92969 34.3945C8.28906 33.3164 9.82422 32.3672 11.5352 31.5469C13.2695 30.7266 15.0156 30.0352 16.7734 29.4727C18.5547 28.9102 20.2773 28.4883 21.9414 28.207C23.6055 27.9258 25.0469 27.7852 26.2656 27.7852C27.6719 27.7852 28.9141 27.8672 29.9922 28.0312C31.0938 28.1719 31.9844 28.3477 32.6641 28.5586C33.3203 28.7695 33.7305 29.0391 33.8945 29.3672C34.082 29.6953 34.082 30.0703 33.8945 30.4922C33.7305 30.9141 33.4023 31.3711 32.9102 31.8633C32.418 32.3555 31.832 32.8594 31.1523 33.375C30.6133 33.7969 30.0391 34.1953 29.4297 34.5703C28.8906 34.8984 28.293 35.2383 27.6367 35.5898C26.9805 35.918 26.3008 36.2109 25.5977 36.4688C25.9492 36.0234 26.0898 35.625 26.0195 35.2734C25.9727 34.9219 25.7617 34.6055 25.3867 34.3242C25.0117 34.043 24.5078 33.8086 23.875 33.6211C23.2422 33.4102 22.5391 33.2461 21.7656 33.1289C20.9922 32.9883 20.1719 32.8945 19.3047 32.8477C18.4609 32.7773 17.6289 32.7422 16.8086 32.7422C16.0117 32.7422 15.2148 32.7773 14.418 32.8477C13.6211 32.8945 12.9062 33.0469 12.2734 33.3047C11.6406 33.5391 11.125 33.9141 10.7266 34.4297C10.3281 34.9453 10.1289 35.6484 10.1289 36.5391C10.1289 37.2656 10.293 38.0273 10.6211 38.8242C10.9492 39.5977 11.4297 40.3359 12.0625 41.0391C12.7188 41.7188 13.5273 42.3281 14.4883 42.8672C15.4492 43.4062 16.5625 43.793 17.8281 44.0273C18.8125 44.2148 19.9023 44.3555 21.0977 44.4492C22.293 44.543 23.4883 44.6602 24.6836 44.8008C25.8789 44.9414 27.0273 45.1406 28.1289 45.3984C29.2539 45.6562 30.25 46.043 31.1172 46.5586C31.9844 47.0742 32.6758 47.7539 33.1914 48.5977C33.707 49.4414 33.9648 50.5195 33.9648 51.832ZM55.1992 0.328125C55.1992 1.00781 55.2109 1.66406 55.2344 2.29688C55.2578 2.90625 55.2695 3.50391 55.2695 4.08984C55.2695 5.47266 55.1523 6.65625 54.918 7.64062C54.6836 8.625 54.1328 9.41016 53.2656 9.99609C52.75 10.3711 52.1055 10.8047 51.332 11.2969C50.043 12.1406 47.9688 13.4297 45.1094 15.1641C45.3906 14.4141 45.5898 13.5117 45.707 12.457C45.8477 11.3789 45.9414 10.3594 45.9883 9.39844C46.0352 8.27344 46.0352 7.10156 45.9883 5.88281C47.4648 5.10938 48.7656 4.39453 49.8906 3.73828C51.0156 3.05859 51.9766 2.46094 52.7734 1.94531C53.7109 1.35937 54.5195 0.820312 55.1992 0.328125ZM67.5742 60.2344C64.9023 61.9922 62.6289 63.375 60.7539 64.3828C58.9023 65.3906 57.3086 66.1406 55.9727 66.6328C54.6367 67.125 53.5117 67.4062 52.5977 67.4766C51.6836 67.5469 50.8516 67.5117 50.1016 67.3711C49.4219 67.2539 48.7539 67.0781 48.0977 66.8438C47.4414 66.6094 46.8438 66.1875 46.3047 65.5781C45.7891 64.9453 45.3672 64.043 45.0391 62.8711C44.7109 61.6992 44.5469 60.1055 44.5469 58.0898C44.5469 56.4023 44.5938 54.7383 44.6875 53.0977C44.7812 51.4336 44.875 49.793 44.9688 48.1758C45.0859 46.5352 45.168 44.918 45.2148 43.3242C45.2852 41.707 45.2969 40.1016 45.25 38.5078C45.2031 36.9609 44.9219 35.8359 44.4062 35.1328C43.8906 34.4062 43.1172 34.043 42.0859 34.043C41.6875 34.043 41.2539 34.0898 40.7852 34.1836C40.3164 34.2773 39.8125 34.418 39.2734 34.6055C40.1172 34.0195 40.9844 33.4336 41.875 32.8477C42.7656 32.2383 43.668 31.6992 44.582 31.2305C45.4961 30.7617 46.4102 30.3867 47.3242 30.1055C48.2617 29.8008 49.1875 29.6484 50.1016 29.6484C51.0859 29.6484 51.9414 29.8711 52.668 30.3164C53.418 30.7617 53.8984 31.5 54.1094 32.5312C54.1797 32.9297 54.2266 33.5156 54.25 34.2891C54.2969 35.0625 54.3203 35.9648 54.3203 36.9961C54.3203 38.5195 54.2852 40.207 54.2148 42.0586C54.168 43.9102 54.1094 45.7383 54.0391 47.543C53.9688 49.3242 53.8984 50.9766 53.8281 52.5C53.7578 54 53.7109 55.1602 53.6875 55.9805C53.6641 56.7539 53.8047 57.5273 54.1094 58.3008C54.4141 59.0742 54.8594 59.7773 55.4453 60.4102C56.0547 61.0195 56.793 61.5234 57.6602 61.9219C58.5508 62.2969 59.5586 62.4844 60.6836 62.4844C61.668 62.4844 62.7344 62.3086 63.8828 61.957C65.0312 61.6055 66.2617 61.0312 67.5742 60.2344ZM101.148 57.9492C99.3203 59.4258 97.5156 60.75 95.7344 61.9219C93.9531 63.0938 92.2188 64.0781 90.5312 64.875C88.8672 65.6719 87.2617 66.2578 85.7148 66.6328C84.1914 67.0312 82.7617 67.1836 81.4258 67.0898C80.0664 66.9961 78.8125 66.668 77.6641 66.1055C76.5391 65.543 75.5664 64.6992 74.7461 63.5742C73.9258 62.4492 73.293 61.0078 72.8477 59.25C72.4023 57.4922 72.2148 55.3711 72.2852 52.8867C72.3086 51.5508 72.3555 49.9688 72.4258 48.1406C72.4727 46.5703 72.5195 44.625 72.5664 42.3047C72.6133 39.9844 72.6602 37.2773 72.707 34.1836C72.2148 34.2305 71.6055 34.2891 70.8789 34.3594C70.1758 34.4297 69.4023 34.5586 68.5586 34.7461C67.7383 34.9102 66.8828 35.1445 65.9922 35.4492C65.1016 35.7305 64.2227 36.0938 63.3555 36.5391C64.0586 36.0938 64.7617 35.6367 65.4648 35.168C66.1914 34.6992 66.8477 34.2656 67.4336 33.8672C68.1133 33.4219 68.7695 32.9766 69.4023 32.5312C70.0352 32.2031 70.5977 31.6055 71.0898 30.7383C71.5117 29.9883 71.8984 28.9219 72.25 27.5391C72.6016 26.1562 72.7773 24.293 72.7773 21.9492C74.418 21.1289 75.8008 20.3789 76.9258 19.6992C78.0508 19.0195 78.9648 18.4453 79.668 17.9766C80.4883 17.4141 81.1445 16.9336 81.6367 16.5352L81.4961 28.3477C82.1055 28.3711 82.7031 28.3945 83.2891 28.418C83.875 28.418 84.3906 28.418 84.8359 28.418H86.3125C88.3281 28.4648 90.2383 28.4414 92.043 28.3477C92.8164 28.3242 93.6016 28.2773 94.3984 28.207C95.2188 28.1367 96.0039 28.0547 96.7539 27.9609C97.5039 27.8438 98.1953 27.7031 98.8281 27.5391C99.4844 27.375 100.035 27.1875 100.48 26.9766C99.2148 28.2422 97.8203 29.3086 96.2969 30.1758C94.7969 31.043 93.2266 31.7578 91.5859 32.3203C89.9453 32.8594 88.2578 33.2695 86.5234 33.5508C84.8125 33.832 83.1133 34.0195 81.4258 34.1133C81.3789 37.4648 81.3438 40.7578 81.3203 43.9922C81.2969 47.2266 81.2852 50.4141 81.2852 53.5547C81.3086 54.5859 81.5664 55.5586 82.0586 56.4727C82.5508 57.3867 83.2305 58.1836 84.0977 58.8633C84.9883 59.543 86.0312 60.0938 87.2266 60.5156C88.4219 60.9141 89.7461 61.1133 91.1992 61.1133C92.6758 61.1133 94.2578 60.8672 95.9453 60.375C97.6562 59.8828 99.3906 59.0742 101.148 57.9492ZM148.398 32.4609C145.703 33.7734 143.195 34.9453 140.875 35.9766C138.578 36.9844 136.551 37.8398 134.793 38.543C132.754 39.3633 130.879 40.0898 129.168 40.7227C128.113 41.168 126.941 41.625 125.652 42.0938C124.387 42.5391 123.062 42.9844 121.68 43.4297C120.297 43.8516 118.879 44.2852 117.426 44.7305C115.996 45.1523 114.578 45.5742 113.172 45.9961V46.6992C113.172 49.1133 113.547 51.2812 114.297 53.2031C115.07 55.125 116.137 56.7656 117.496 58.125C118.855 59.4609 120.484 60.4922 122.383 61.2188C124.281 61.9219 126.379 62.2734 128.676 62.2734C129.871 62.2734 131.055 62.1797 132.227 61.9922C133.422 61.8047 134.547 61.5586 135.602 61.2539C136.68 60.9258 137.688 60.5391 138.625 60.0938C139.562 59.6484 140.395 59.168 141.121 58.6523C139.34 60.2461 137.5 61.582 135.602 62.6602C133.727 63.7383 131.84 64.6172 129.941 65.2969C128.066 65.9531 126.203 66.4336 124.352 66.7383C122.523 67.043 120.766 67.207 119.078 67.2305C117.367 67.2773 115.68 67.0078 114.016 66.4219C112.375 65.8594 110.875 64.9922 109.516 63.8203C108.156 62.6484 107.008 61.1953 106.07 59.4609C105.133 57.7031 104.523 55.6641 104.242 53.3438C104.125 52.5234 104.066 51.7383 104.066 50.9883C104.09 50.2148 104.172 49.4531 104.312 48.7031C103.492 49.0078 102.742 49.2891 102.062 49.5469C101.406 49.8047 100.867 50.0625 100.445 50.3203C101.125 49.8516 101.805 49.418 102.484 49.0195C103.164 48.5977 103.832 48.2109 104.488 47.8594C104.887 46.0312 105.566 44.2852 106.527 42.6211C107.512 40.957 108.684 39.4102 110.043 37.9805C111.426 36.5508 112.961 35.2617 114.648 34.1133C116.336 32.9414 118.082 31.9453 119.887 31.125C121.715 30.3047 123.566 29.6719 125.441 29.2266C127.316 28.7812 129.133 28.5586 130.891 28.5586C132.062 28.5586 133.047 28.7344 133.844 29.0859C134.664 29.4375 135.215 30.0586 135.496 30.9492C135.637 31.8867 135.297 32.8945 134.477 33.9727C134.125 34.4414 133.645 34.9453 133.035 35.4844C132.449 36 131.676 36.5508 130.715 37.1367C129.777 37.7227 128.641 38.332 127.305 38.9648C125.992 39.5977 124.434 40.2305 122.629 40.8633L148.398 32.4609ZM120.52 41.0039C121.527 40.5586 122.43 40.0781 123.227 39.5625C124.047 39.0469 124.68 38.5078 125.125 37.9453C125.594 37.3828 125.84 36.7969 125.863 36.1875C125.887 35.5781 125.641 34.9336 125.125 34.2539C124.773 33.7383 124.281 33.3867 123.648 33.1992C123.039 32.9883 122.406 32.8828 121.75 32.8828C121.141 32.8828 120.555 32.9531 119.992 33.0938C119.43 33.2109 118.938 33.375 118.516 33.5859C118.234 33.75 117.848 34.1133 117.355 34.6758C116.863 35.2148 116.359 35.9297 115.844 36.8203C115.328 37.6875 114.836 38.707 114.367 39.8789C113.922 41.0273 113.594 42.293 113.383 43.6758C114.859 43.1367 116.195 42.6562 117.391 42.2344C118.586 41.8125 119.629 41.4023 120.52 41.0039Z" fill="#0A0A0A"/>
</svg>
